<svg width="27" height="36" viewBox="0 0 27 36" fill="none" xmlns="http://www.w3.org/2000/svg">
<path d="M26.7406 15.5517C26.8891 15.5393 27.0004 15.4243 27.0004 15.2658V5.76746C27.0004 3.9604 25.6017 2.49673 23.8749 2.49673L18.2489 2.49518L11.9978 2.49362L6.37181 2.49207C4.64645 2.49207 3.24626 3.95574 3.24626 5.7628V15.1834V22.4288L2.52167 35.1979L11.4276 35.1994L18.8176 35.201L23.8734 35.2025C25.5988 35.2025 26.9989 33.7389 26.9989 31.9318V22.5111C26.9989 22.3247 26.8534 22.16 26.6767 22.1413C25.082 21.972 23.8363 20.5627 23.8363 18.8489C23.8378 17.1133 25.1147 15.69 26.7406 15.5517Z" fill="#192C8E"/>
<path d="M17.025 3.82056H6.98169V31.9784H17.025V3.82056Z" fill="#3155E8" stroke="white" stroke-width="0.653252" stroke-miterlimit="10"/>
<path d="M23.4943 12.685C23.6428 12.6523 23.7542 12.5218 23.7542 12.3633V2.86499C23.7542 1.05793 22.3555 -0.211521 20.6286 0.029317L15.0026 0.812426L8.75154 1.68256L3.12555 2.46566C1.3987 2.7065 0 4.36595 0 6.17146V15.5921C0 15.777 0.146996 15.9231 0.32369 15.9169C1.91839 15.864 3.16267 17.0993 3.16267 18.8131C3.16267 20.5487 1.88572 22.1507 0.259844 22.5158C0.111362 22.5484 0 22.679 0 22.8375V32.3358C0 34.1429 1.40018 35.4123 3.12555 35.1715L8.18137 34.4676L15.5713 33.439L20.6271 32.7351C22.354 32.4943 23.7527 30.8348 23.7527 29.0293V19.6087C23.7527 19.4238 23.6057 19.2777 23.429 19.2839C21.8343 19.3368 20.59 18.1015 20.59 16.3877C20.593 14.6505 21.8699 13.0501 23.4943 12.685ZM11.8771 4.68603C13.4599 4.46539 14.7443 5.62918 14.7443 7.28708C14.7443 8.94498 13.4614 10.4661 11.8771 10.6868C10.2943 10.9074 9.0099 9.74363 9.0099 8.08573C9.0099 6.42784 10.2943 4.90667 11.8771 4.68603ZM14.8126 29.8202C14.8126 29.9771 14.6908 30.1232 14.5409 30.1449L11.6752 30.5443C10.1651 30.754 8.9416 29.6446 8.9416 28.0644V14.2046C8.9416 14.0476 9.06335 13.9016 9.21332 13.8798L14.4592 13.1496C14.6537 13.1231 14.8126 13.2676 14.8126 13.4743V29.8202Z" fill="white"/>
</svg>
